<svg xmlns="http://www.w3.org/2000/svg" viewBox="0 0 512 512">
  <defs>
    <linearGradient id="bg" x1="0%" y1="0%" x2="100%" y2="100%">
      <stop offset="0%" style="stop-color:#667eea"/>
      <stop offset="100%" style="stop-color:#764ba2"/>
    </linearGradient>
  </defs>

  <!-- Full background - no transparency -->
  <rect width="512" height="512" rx="96" fill="url(#bg)"/>

  <!-- Family group - friendly rounded people -->
  <g fill="white" opacity="0.95">
    <!-- Left person (smaller, child) -->
    <circle cx="165" cy="175" r="34"/>
    <rect x="131" y="218" width="68" height="50" rx="22" ry="22"/>

    <!-- Center person (taller, parent) -->
    <circle cx="256" cy="155" r="42"/>
    <rect x="214" y="206" width="84" height="58" rx="26" ry="26"/>

    <!-- Right person (smaller, child) -->
    <circle cx="347" cy="175" r="34"/>
    <rect x="313" y="218" width="68" height="50" rx="22" ry="22"/>
  </g>

  <!-- Heart - centered below family -->
  <path d="M256 410 L220 374 C195 349 180 330 180 310 C180 294 193 280 210 280 C225 280 240 290 256 308 C272 290 287 280 302 280 C319 280 332 294 332 310 C332 330 317 349 292 374 Z" fill="white" opacity="0.9"/>
</svg>
