<svg xmlns="http://www.w3.org/2000/svg" viewBox="0 0 100 100">
  <circle cx="50" cy="50" r="50" fill="#00ff00"/>
  <g fill="#ffffff">
    <!-- Three people icon representing family -->
    <!-- Left person -->
    <circle cx="30" cy="35" r="8"/>
    <path d="M 22 45 Q 22 48 25 48 L 35 48 Q 38 48 38 45 L 38 43 Q 38 40 35 40 L 25 40 Q 22 40 22 43 Z"/>

    <!-- Center person (slightly larger) -->
    <circle cx="50" cy="32" r="9"/>
    <path d="M 40 43 Q 40 46 44 46 L 56 46 Q 60 46 60 43 L 60 41 Q 60 38 56 38 L 44 38 Q 40 38 40 41 Z"/>

    <!-- Right person -->
    <circle cx="70" cy="35" r="8"/>
    <path d="M 62 45 Q 62 48 65 48 L 75 48 Q 78 48 78 45 L 78 43 Q 78 40 75 40 L 65 40 Q 62 40 62 43 Z"/>

    <!-- Heart at bottom -->
    <path d="M 50 75 L 42 67 Q 38 63 38 58 Q 38 54 41 51 Q 44 48 48 48 Q 49 48 50 49 Q 51 48 52 48 Q 56 48 59 51 Q 62 54 62 58 Q 62 63 58 67 Z" fill="#ffffff"/>
  </g>
</svg>
